<?xml version="1.0" standalone="no"?><!DOCTYPE svg PUBLIC "-//W3C//DTD SVG 1.1//EN" "http://www.w3.org/Graphics/SVG/1.1/DTD/svg11.dtd"><svg class="icon" width="128px" height="117.76px" viewBox="0 0 1113 1024" version="1.1" xmlns="http://www.w3.org/2000/svg"><path fill="#000000" d="M585.440561 17.551719l503.089404 311.296a35.929825 35.929825 0 0 1-16.922947 66.434246l-68.176843 3.772631v501.93965a107.789474 107.789474 0 0 1-107.789473 107.789473H664.701754L664.701754 790.45614a107.789474 107.789474 0 0 0-103.747368-107.717614L556.912281 682.666667a107.789474 107.789474 0 0 0-107.717614 103.747368L449.122807 790.45614v218.327579H218.165895a107.789474 107.789474 0 0 1-107.789474-107.789473v-501.93965l-68.122947-3.772631a35.929825 35.929825 0 0 1-16.922948-66.434246L528.725333 17.533754a53.894737 53.894737 0 0 1 56.715228 0z m-28.348631 45.810527L102.292211 344.638877l61.978947 3.431298v552.96a53.894737 53.894737 0 0 0 50.732912 53.786948l3.17979 0.089824 177.026245-0.017965 0.03593-165.402947 0.089825-5.030175c3.14386-85.189614 71.967439-153.150877 157.785824-155.576141l4.778667-0.071859 5.030175 0.089824a161.684211 161.684211 0 0 1 155.594106 156.833684L718.596491 790.45614l-0.017965 164.414878 177.062176 0.017964a53.894737 53.894737 0 0 0 53.804912-50.714947l0.089825-3.179789V348.052211l62.050807-3.431299-454.512281-281.240701z" /></svg>