<?xml version="1.0" standalone="no"?><!DOCTYPE svg PUBLIC "-//W3C//DTD SVG 1.1//EN" "http://www.w3.org/Graphics/SVG/1.1/DTD/svg11.dtd"><svg t="1619087448592" class="icon" viewBox="0 0 1024 1024" version="1.1" xmlns="http://www.w3.org/2000/svg" p-id="2169" xmlns:xlink="http://www.w3.org/1999/xlink" width="128" height="128"><defs><style type="text/css"></style></defs><path d="M507.489 16.553c-276.446 0-500.547 224.102-500.547 500.548 0 276.445 224.107 500.552 500.547 500.552 276.444 0 500.553-224.107 500.553-500.552 0-276.446-224.11-500.548-500.553-500.548z m204.46 517.3c-12.212 12.217-32.024 12.217-44.237 0L538.78 404.919v331.17c0 17.283-14.009 31.291-31.291 31.291-17.271 0-31.282-14.008-31.282-31.29V404.92L347.272 533.852c-12.218 12.217-32.025 12.217-44.237 0-12.224-12.218-12.224-32.026 0-44.244L480.003 312.64c7.503-7.504 17.781-9.831 27.486-8.122 9.71-1.71 19.988 0.618 27.491 8.122l176.97 176.968c12.216 12.218 12.216 32.026 0 44.244z m0 0" fill="#d81e06" p-id="2170"></path></svg>